<mxfile host="app.diagrams.net" modified="2024-06-21T13:44:29.083Z" agent="Mozilla/5.0 (Macintosh; Intel Mac OS X 10.15; rv:127.0) Gecko/20100101 Firefox/127.0" etag="gzXFD3E77gfWR3QkwpQf" version="24.6.0" type="github">
  <diagram name="Page-1" id="A44iakAYsuSJQiRid9g6">
    <mxGraphModel dx="1570" dy="1001" grid="1" gridSize="10" guides="1" tooltips="1" connect="1" arrows="1" fold="1" page="1" pageScale="1" pageWidth="827" pageHeight="1169" math="0" shadow="0">
      <root>
        <mxCell id="0" />
        <mxCell id="1" parent="0" />
        <mxCell id="4HCBTgKQ0FoVIDRxpbXc-1" value="" style="whiteSpace=wrap;html=1;" vertex="1" parent="1">
          <mxGeometry x="260" y="320" width="210" height="220" as="geometry" />
        </mxCell>
      </root>
    </mxGraphModel>
  </diagram>
</mxfile>
